<svg width="78" height="62" viewBox="0 0 78 62" fill="none" xmlns="http://www.w3.org/2000/svg">
<path fill-rule="evenodd" clip-rule="evenodd" d="M0 45.875C0 36.968 7.22 29.749 16.125 29.749C25.031 29.749 32.251 36.968 32.25 45.875C32.25 54.78 25.03 62 16.125 62C7.22 62 0 54.78 0 45.875ZM10.9579 51.0421C12.3283 52.4125 14.187 53.1823 16.125 53.182C18.063 53.1823 19.9217 52.4125 21.2921 51.0421C22.6625 49.6718 23.4323 47.813 23.432 45.875C23.432 41.8395 20.1605 38.568 16.125 38.568C12.0895 38.568 8.818 41.8395 8.818 45.875C8.81773 47.813 9.58749 49.6718 10.9579 51.0421ZM60.854 45.874C56.4015 45.874 52.792 49.4835 52.792 53.936C52.792 56.8163 54.3286 59.4778 56.823 60.9179C59.3174 62.3581 62.3906 62.3581 64.885 60.9179C67.3794 59.4778 68.916 56.8163 68.916 53.936C68.9165 51.7977 68.0673 49.7468 66.5553 48.2347C65.0433 46.7227 62.9923 45.8735 60.854 45.874ZM55.792 53.936C55.7914 56.7322 58.0578 58.9995 60.854 59C63.6502 59.0006 65.9174 56.7342 65.918 53.938C65.9186 51.1418 63.6522 48.8746 60.856 48.874C58.0598 48.8735 55.7926 51.1398 55.792 53.936Z" fill="white"/>
<path fill-rule="evenodd" clip-rule="evenodd" d="M75.4369 31.313C75.8749 34.625 77.8979 49.727 77.8979 49.727C77.8979 49.727 78.6409 52.875 74.9999 52.875H73.0449C72.6559 46.473 67.3549 41.396 60.8539 41.396C54.3529 41.396 49.0529 46.473 48.6629 52.875H38.4989C39.1899 50.664 39.5629 48.313 39.5629 45.875C39.5629 32.929 29.0689 22.436 16.1249 22.436C11.4649 22.4285 6.90957 23.8168 3.04587 26.422C3.00087 23.463 3.00387 12.537 5.31187 6.167C5.31187 6.167 6.37487 3.625 8.74987 3C11.1249 2.375 33.4999 0 33.4999 0C33.4999 0 35.8139 0.062 36.6259 1.875C37.4379 3.688 47.1879 23.75 47.1879 23.75L58.9999 25.128V19.833H62.9999V14H65.9999V25.946L71.8119 26.625C71.8119 26.625 74.8899 27.172 75.4369 31.313ZM16.1249 19.833H23.0829V6.167H16.1249V19.833ZM33.0829 19.833H26.1249V6.167H33.0829V19.833ZM48.9999 36H53.0159V29H48.9999V36ZM60.0159 36H55.9999V29H60.0159V36ZM62.9999 36H67.0159V29H62.9999V36Z" fill="white"/>
</svg>
